<svg width="25" height="75" viewBox="0 0 25 75" fill="none" xmlns="http://www.w3.org/2000/svg">
<path d="M11.5626 51.9964L11.5626 71.0454L4.74146 63.7513C4.38428 63.3693 3.79085 63.3545 3.41585 63.7183C3.04132 64.0816 3.02632 64.6861 3.38351 65.0685L11.174 73.3987C11.5284 73.7592 11.999 73.9583 12.5001 73.9583C13.0007 73.9583 13.4718 73.7592 13.8417 73.382L21.6163 65.068C21.7892 64.8833 21.875 64.6464 21.875 64.4096C21.875 64.1576 21.7775 63.9055 21.5839 63.7178C21.2089 63.354 20.616 63.3688 20.2588 63.7508L13.4376 71.0755L13.4376 51.9964C13.4376 51.4694 13.0176 51.0416 12.5001 51.0416C11.9826 51.0416 11.5626 51.4694 11.5626 51.9964Z" fill="white" fill-opacity="0.5"/>
<rect x="3" y="1" width="19" height="28" rx="9.5" stroke="white" stroke-opacity="0.5" stroke-width="2"/>
<circle cx="12.5" cy="19.5" r="2.5" fill="white" fill-opacity="0.5"/>
</svg>
