<svg width="86" height="94" viewBox="0 0 86 94" fill="none" xmlns="http://www.w3.org/2000/svg">
<path d="M21.7454 6.69871C3.15259 12.9589 1.83794 13.418 1.14932 14.1275C0.00161307 15.2752 -0.0818565 15.8595 0.0433479 22.0988C0.210287 29.319 0.752839 34.1811 2.08835 40.3161C6.59571 60.9957 18.8657 78.0652 38.961 91.6708C42.9467 94.3835 42.905 94.3835 46.7237 91.7751C52.1701 88.0816 56.2392 84.7428 60.997 80.1102C70.7838 70.5529 77.3988 60.2027 81.3427 48.2248C84.2224 39.5231 85.5371 30.9049 85.5371 20.6799C85.5371 15.9012 85.4327 15.3378 84.4311 14.3988C84.0555 14.0649 77.8996 11.8321 63.835 6.94912C47.0993 1.12711 43.6145 -0.0205917 42.6963 0.000274658C41.8407 0.000274658 37.396 1.41926 21.7454 6.69871ZM60.9135 13.2093L78.7552 19.3235L78.7134 23.0587C78.3796 47.2023 67.925 67.3811 47.9966 82.3848C44.9917 84.6384 43.0719 85.9531 42.738 85.9531C42.6128 85.9531 41.5695 85.2853 40.4218 84.4715C30.8228 77.627 22.9766 69.5304 17.5511 60.8913C16.4034 59.0967 13.7532 54.3807 13.7532 54.172C13.7532 54.1094 16.4869 54.965 19.8465 56.0501C26.4406 58.1786 26.7327 58.2203 28.0891 57.3022C29.9255 56.0501 30.0924 53.6504 28.423 52.0853C27.8179 51.5219 27.6509 51.4593 14.4627 47.2441L10.6857 46.0338L10.1014 44.2392C9.12067 41.2343 8.34857 38.1667 8.57811 38.1667C8.68245 38.1667 12.6264 39.3979 17.3216 40.9004C23.9991 43.0288 26.0441 43.6131 26.6075 43.5297C28.423 43.2375 29.7585 41.6099 29.5498 39.8987C29.4455 38.8971 28.6317 37.6868 27.7761 37.2486C27.4631 37.1025 22.8097 35.5792 17.405 33.8889C12.0212 32.1778 7.53474 30.7379 7.45127 30.6753C7.34694 30.571 6.65831 23.5387 6.74178 23.4135C6.76265 23.3926 10.9987 24.749 16.153 26.4184C22.2463 28.3799 25.8772 29.4442 26.5032 29.465C29.7377 29.5276 31.1149 25.2498 28.4439 23.4552C28.0891 23.2048 23.9991 21.8693 19.3666 20.4295C14.734 19.0105 10.8527 17.8002 10.7275 17.7376C10.5188 17.6332 41.9868 7.13692 42.6546 7.09518C42.8841 7.09518 51.1059 9.84969 60.9135 13.2093Z" fill="#FFE600"/>
</svg>
