<svg width="89" height="89" viewBox="0 0 89 89" fill="none" xmlns="http://www.w3.org/2000/svg">
<path d="M23.3477 0.451172C18.8203 0.933594 14.6826 2.41797 11.1016 4.84863C9.32031 6.07324 6.07324 9.32031 4.84863 11.1016C2.86328 14.0146 1.41602 17.54 0.748047 21.0098C0.469727 22.5498 0.432617 24.665 0.432617 44.5C0.432617 64.335 0.469727 66.4502 0.748047 67.9902C1.73145 73.1855 4.36621 78.084 8.07715 81.6279C11.5469 84.9492 15.6289 87.083 20.5645 88.1592C22.29 88.5303 22.8652 88.5488 43.1084 88.623C65.1699 88.6973 66.4688 88.6602 69.7529 87.8252C79.2529 85.4502 86.3779 77.7871 88.2148 67.9717C88.5488 66.2275 88.5674 64.8545 88.5674 44.5C88.5674 24.1455 88.5488 22.7725 88.2148 21.0283C86.5078 11.8809 80.1807 4.57031 71.46 1.65723C67.7676 0.414062 68.8809 0.469727 45.335 0.432617C33.6084 0.414062 23.7002 0.414062 23.3477 0.451172ZM66.8213 7.4834C70.5693 8.13281 73.6123 9.74707 76.4326 12.5674C78.4736 14.6084 79.8096 16.6494 80.6816 19.0244C81.832 22.2344 81.8135 21.6963 81.7578 45.2607C81.7021 66.5986 81.7021 66.6729 81.2939 68.083C81.0713 68.8809 80.626 70.124 80.3105 70.8662C78.4922 75.1709 74.3359 79.0859 69.9756 80.6816C66.7656 81.832 67.3037 81.8135 43.7393 81.7578C22.4014 81.7021 22.3271 81.7021 20.917 81.2939C17.4287 80.3105 14.6641 78.6777 12.2891 76.1914C9.70996 73.501 8.0957 70.3652 7.4834 66.8213C7.0752 64.4463 7.0752 24.5537 7.4834 22.1787C8.61523 15.666 13.4023 10.1738 19.8037 8.04004C22.1973 7.24219 22.4756 7.24219 44.333 7.22363C62.0898 7.20508 65.4668 7.24219 66.8213 7.4834Z" fill="#FFE600"/>
<path d="M43.0898 21.1025C42.6631 21.2881 42.0879 21.7705 41.791 22.1602L41.2529 22.8467V44.5V66.1533L41.791 66.8398C42.4033 67.6562 43.5537 68.25 44.5 68.25C45.4463 68.25 46.5967 67.6562 47.209 66.8398L47.7471 66.1533V44.5V22.8467L47.209 22.1602C46.5967 21.3438 45.4463 20.75 44.5 20.75C44.1475 20.75 43.498 20.917 43.0898 21.1025Z" fill="#FFE600"/>
<path d="M60.3642 34.5176C59.5107 34.8145 58.4716 35.9092 58.249 36.7813C58.082 37.3194 58.0449 41.5127 58.082 51.7549L58.1377 65.9493L58.6386 66.71C59.5107 68.0274 61.3105 68.584 62.7392 67.9903C63.5371 67.6748 64.4648 66.5801 64.706 65.7081C64.9843 64.7432 64.9843 37.8018 64.7246 36.8555C64.205 35 62.1455 33.9053 60.3642 34.5176Z" fill="#FFE600"/>
<path d="M25.8896 41.5498C25.5185 41.7539 24.9805 42.2549 24.6836 42.6817L24.1826 43.461L24.1269 54.1856C24.0898 61.4034 24.1455 65.17 24.2754 65.6524C24.5166 66.5616 25.4443 67.6563 26.2607 67.9903C27.6894 68.584 29.4893 68.0274 30.3613 66.71L30.8623 65.9493L30.918 55.0948C30.9551 47.8399 30.918 43.9991 30.7881 43.5537C30.1943 41.5313 27.7822 40.5479 25.8896 41.5498Z" fill="#FFE600"/>
</svg>
