<svg width="95" height="95" viewBox="0 0 95 95" fill="none" xmlns="http://www.w3.org/2000/svg">
<path d="M38.7422 0.389648C37.5732 1.00195 37.2949 1.7998 37.2949 4.58301V6.95801L34.5303 7.84863C32.749 8.42383 30.7266 9.25879 28.8711 10.1865L25.9951 11.6152L24.2695 9.88965C22.3213 7.92285 21.709 7.62598 20.373 7.99707C19.6865 8.16406 18.833 8.94336 13.8789 13.8789C8.9248 18.833 8.16406 19.668 7.97852 20.3545C7.62598 21.709 7.92285 22.3213 9.88965 24.2695L11.6152 25.9951L10.1865 28.8711C9.25879 30.7266 8.42383 32.749 7.84863 34.5303L6.95801 37.2949H4.58301C1.7627 37.2949 0.983398 37.5732 0.371094 38.7793C0.0185547 39.4658 0 39.8555 0 47.5C0 55.1445 0.0185547 55.5342 0.371094 56.2207C0.983398 57.4268 1.7627 57.7051 4.58301 57.7051H6.95801L7.84863 60.4697C8.42383 62.251 9.25879 64.2734 10.1865 66.1289L11.6152 69.0049L9.88965 70.7305C7.92285 72.6787 7.62598 73.291 7.97852 74.627C8.16406 75.3135 8.9248 76.167 13.8789 81.1211C18.833 86.0752 19.6865 86.8359 20.3545 87.0215C21.709 87.374 22.3213 87.0771 24.2695 85.1104L25.9951 83.3848L28.8711 84.8135C30.7266 85.7412 32.749 86.5762 34.5303 87.1514L37.2949 88.042V90.417C37.2949 93.2373 37.5732 94.0166 38.7793 94.6289C39.4658 94.9814 39.8555 95 47.5 95C55.1445 95 55.5342 94.9814 56.2207 94.6289C57.4268 94.0166 57.7051 93.2373 57.7051 90.417V88.042L60.4697 87.1514C62.251 86.5762 64.2734 85.7412 66.1289 84.8135L69.0049 83.3848L70.7305 85.1104C72.6787 87.0771 73.291 87.374 74.6455 87.0215C75.332 86.8359 76.167 86.0752 81.1211 81.1211C86.0566 76.167 86.8359 75.3135 87.0029 74.627C87.374 73.291 87.0771 72.6787 85.1104 70.7305L83.3848 69.0049L84.8135 66.1289C85.7412 64.2734 86.5762 62.251 87.1514 60.4697L88.042 57.7051H90.417C93.2373 57.7051 94.0166 57.4268 94.6289 56.2207C94.9814 55.5342 95 55.1445 95 47.5C95 39.8555 94.9814 39.4658 94.6289 38.7793C94.0166 37.5732 93.2373 37.2949 90.417 37.2949H88.042L87.1514 34.5303C86.5762 32.749 85.7412 30.7266 84.8135 28.8711L83.3848 25.9951L85.1104 24.2695C87.0771 22.3213 87.374 21.709 87.0215 20.3545C86.8359 19.6865 86.0566 18.833 81.1211 13.8789C76.167 8.94336 75.3135 8.16406 74.6455 7.97852C73.291 7.62598 72.6787 7.92285 70.7305 9.88965L69.0049 11.6152L66.1289 10.1865C64.2734 9.25879 62.251 8.42383 60.4697 7.84863L57.7051 6.95801V4.58301C57.7051 1.7627 57.4268 0.983398 56.2207 0.371094C55.5156 0.0185547 55.1445 0 47.4629 0C39.8369 0.0185547 39.3916 0.0371094 38.7422 0.389648ZM52.1387 7.60742C52.1387 11.0029 52.4912 11.4482 55.9795 12.3389C60.043 13.3779 64.125 15.1221 67.168 17.126C69.2461 18.499 70.0068 18.3506 72.2148 16.1797L73.8662 14.584L77.1318 17.8682L80.416 21.1338L78.8203 22.7852C76.5938 25.0488 76.501 25.6982 78.0596 28.1104C80.0264 31.1904 81.9189 35.6992 82.7539 39.3916C83.4219 42.3604 84.0898 42.8613 87.3926 42.8613H89.4336V47.5V52.1387H87.3926C84.0898 52.1387 83.4219 52.6396 82.7539 55.6084C81.9189 59.2637 80.0078 63.8652 78.0596 66.8896C76.501 69.3018 76.5938 69.9512 78.8203 72.2148L80.416 73.8662L77.1318 77.1318L73.8662 80.416L72.2148 78.8203C70.0068 76.6494 69.2461 76.501 67.168 77.874C64.125 79.8779 60.043 81.6221 55.9795 82.6611C52.4912 83.5518 52.1387 83.9971 52.1387 87.3926V89.4336H47.5H42.8613V87.3926C42.8613 84.2012 42.3047 83.4033 39.7627 82.8281C36.0518 82.0303 31.1533 80.0264 28.1104 78.0596C25.6982 76.501 25.0488 76.5938 22.7852 78.8203L21.1338 80.416L17.8682 77.1318L14.584 73.8662L16.1797 72.2148C18.3506 70.0068 18.499 69.2461 17.126 67.168C15.1221 64.125 13.3779 60.043 12.3389 55.9795C11.4482 52.4912 11.0029 52.1387 7.60742 52.1387H5.56641V47.5V42.8613H7.60742C11.0029 42.8613 11.4482 42.5088 12.3389 39.0205C13.3779 34.957 15.1221 30.875 17.126 27.832C18.499 25.7539 18.3506 24.9932 16.1797 22.7852L14.584 21.1338L17.8682 17.8682L21.1338 14.584L22.7852 16.1797C25.123 18.4805 25.6055 18.5176 28.4814 16.7549C31.7285 14.7324 36.0518 12.9697 39.7627 12.1719C42.3047 11.5967 42.8613 10.7988 42.8613 7.60742V5.56641H47.5H52.1387V7.60742Z" fill="#FFE600"/>
<path d="M43.5664 19.0186C38.0742 19.7793 32.6377 22.2842 28.5 25.9766C21.2451 32.4522 17.7568 41.7666 19.0186 51.2666C19.4639 54.6065 20.3174 57.3711 21.8389 60.377C28.9639 74.5156 46.0898 80.2676 60.21 73.2539C71.2686 67.7617 77.6143 55.9053 75.9815 43.7334C73.8848 27.9619 59.3379 16.8662 43.5664 19.0186ZM50.8399 24.585C53.3447 24.9746 55.1074 25.4942 57.2598 26.5147C59.9131 27.7764 61.8057 29.1123 63.8467 31.1533C71.7881 39.0947 72.9199 51.1738 66.6113 60.5996C65.3496 62.4737 62.4736 65.3496 60.5996 66.6113C52.1943 72.2334 41.5625 71.9922 33.584 65.9805C24.8262 59.3936 21.8574 47.5371 26.5147 37.7403C27.7949 35.0684 29.1123 33.1944 31.1533 31.1533C33.2129 29.1123 35.1055 27.7764 37.7402 26.5147C41.8037 24.585 46.4238 23.8985 50.8399 24.585Z" fill="#FFE600"/>
<path d="M58.0762 37.1279C57.8164 37.2392 54.4394 40.4863 50.5615 44.3457L43.5107 51.3965L40.3564 48.2422C36.998 44.8838 36.4971 44.5498 35.1797 44.791C34.252 44.958 33.2686 45.8857 33.0273 46.7764C32.6377 48.2422 32.8232 48.5019 37.6104 53.2705C40.041 55.6826 42.2119 57.7607 42.4346 57.8721C42.9912 58.1504 44.2715 58.1318 44.8652 57.8164C45.1435 57.668 49.0586 53.8457 53.5674 49.3183C60.6181 42.249 61.7871 40.9873 61.9541 40.3379C62.2695 39.1504 61.7871 37.8887 60.8037 37.2949C60.1543 36.8867 58.8555 36.8125 58.0762 37.1279Z" fill="#FFE600"/>
</svg>
