<svg width="95" height="95" viewBox="0 0 95 95" fill="none" xmlns="http://www.w3.org/2000/svg">
<path d="M33.751 0.259766C32.1738 0.59375 30.2256 1.37305 28.9639 2.18945C26.96 3.45117 24.752 5.91895 23.7315 8.01562C23.3789 8.73926 23.2119 8.8877 22.6553 8.99902C18.5732 9.74121 14.7324 12.6543 12.9141 16.3467C12.4502 17.3115 11.9307 18.5918 11.7822 19.2041C11.3926 20.707 11.2441 23.2305 11.4668 24.5293L11.6338 25.6055L10.9658 25.791C10.5947 25.8838 10.2236 25.9766 10.1494 25.9766C10.0566 25.9766 9.42579 26.1992 8.75782 26.4775C5.39942 27.7949 2.41212 30.7637 1.05762 34.085C0.296882 35.959 0.0927809 37.0723 0.111336 39.3359C0.12989 42.2676 0.742195 44.4385 2.17091 46.7021L2.80177 47.6855L2.17091 48.6504C0.742195 50.9326 0.12989 53.1035 0.111336 56.0352C0.0927809 58.3359 0.296882 59.4307 1.13184 61.4346C2.44923 64.6631 5.41798 67.5762 8.70216 68.9121C9.37012 69.1719 9.98243 69.3945 10.0938 69.3945C10.2051 69.3945 10.5947 69.4873 10.9658 69.5801L11.6338 69.7656L11.4668 70.8418C11.0029 73.6436 11.8193 77.4658 13.4522 80.0635C15.4004 83.1807 18.9629 85.667 22.3955 86.335L23.583 86.5576L24.2695 87.8564C25.1045 89.4521 27.6279 92.0684 29.2236 92.9775C34.9756 96.2988 41.7109 95.3896 46.3496 90.6768L47.5186 89.4893L48.669 90.6768C53.1592 95.3711 60.0244 96.2988 65.7764 92.9775C67.3721 92.0684 69.8955 89.4521 70.7305 87.8564L71.417 86.5576L72.6045 86.335C76.0371 85.667 79.5996 83.1807 81.5479 80.0635C83.1807 77.4658 83.9971 73.6436 83.5332 70.8232L83.3662 69.7656L84.127 69.5615C88.7285 68.3926 92.1982 65.498 93.8682 61.4531C94.7031 59.4307 94.9072 58.3359 94.8887 56.0352C94.8701 53.1035 94.2578 50.9326 92.8291 48.6689L92.1982 47.6855L92.8291 46.7021C94.2578 44.4385 94.8701 42.2676 94.8887 39.3359C94.9072 37.0723 94.7031 35.959 93.9424 34.085C92.5879 30.7637 89.6006 27.7949 86.2422 26.4775C85.5742 26.1992 84.9434 25.9766 84.8506 25.9766C84.7764 25.9766 84.4053 25.8838 84.0342 25.791L83.3662 25.6055L83.5332 24.5293C83.7559 23.2305 83.6074 20.707 83.2178 19.2041C81.9375 14.1572 77.4287 9.92676 72.3447 8.99902C71.7881 8.8877 71.6211 8.73926 71.2686 8.01562C70.2481 5.91895 68.04 3.45117 66.0361 2.18945C63.6982 0.686523 60.5625 -0.129883 57.8906 0.0742188C55.7383 0.222656 54.4024 0.59375 52.3242 1.61426C50.8955 2.30078 50.2647 2.76465 49.04 3.9707L47.5 5.49219L45.9785 3.9707C44.7354 2.76465 44.1045 2.30078 42.6758 1.61426C41.7109 1.13184 40.4121 0.612305 39.7998 0.463867C38.2041 0.0556641 35.2354 -0.0371094 33.751 0.259766ZM38.3154 5.84473C41.5254 6.69824 43.919 9.20312 44.5313 12.4131C44.791 13.7676 44.791 42.2676 44.5313 43.6221C43.8447 47.2031 40.9688 49.875 37.332 50.3203C35.4951 50.543 34.4932 51.0254 33.9922 51.9346C33.4727 52.8438 33.4727 53.6602 33.9736 54.5508C34.4932 55.46 35.5137 56.0352 36.627 56.0352C38.6865 56.0352 41.8594 55.0703 43.7334 53.8643L44.7168 53.2334V67.4092C44.7168 76.2783 44.6426 81.9561 44.5313 82.5869C43.6963 86.9287 39.4102 89.9902 35.1426 89.2852C31.376 88.6543 28.6299 85.8154 28.166 82.0488C27.9063 80.082 27.4609 79.1543 26.5518 78.6719C25.6611 78.2266 25.1045 78.208 24.1768 78.5791C23.5088 78.8389 22.6367 79.8223 22.6367 80.3047C22.6367 80.6572 22.3027 80.5645 21.1152 79.9336C18.4434 78.5234 16.6436 75.1094 16.959 72.1035C17.126 70.3965 17.4414 69.5615 17.9795 69.3574C20.4844 68.374 22.0244 67.4277 23.6016 65.9062L25.2344 64.3291L26.459 64.5332C30.2256 65.1641 32.9717 68.0029 33.4356 71.7695C33.6953 73.7363 34.1406 74.6641 35.0498 75.1465C36.4785 75.8701 37.9815 75.4248 38.7607 74.0332C39.169 73.3096 39.1875 73.1055 39.0762 71.6582C38.9277 69.7656 38.1856 67.3721 37.1836 65.6836C36.3115 64.1621 33.8438 61.6758 32.3408 60.8037C31.2461 60.1729 29.1494 59.3564 27.9805 59.1152C27.5166 59.0039 27.4795 58.9482 27.6094 58.3916C27.832 57.4082 27.7393 53.9756 27.4795 52.8994C26.8672 50.4688 25.457 47.9268 23.8799 46.4053C23.1191 45.6816 22.915 45.5703 22.0059 45.4961C20.4658 45.3662 19.4453 46.127 19.0928 47.6484C18.8887 48.5576 19.1856 49.3555 20.1875 50.5986C22.3955 53.3447 22.8037 56.5547 21.3565 59.6719C19.8721 62.8447 16.1426 64.8115 12.6914 64.2363C7.14356 63.3271 3.97071 57.334 6.43848 52.417C6.67969 51.8975 6.92091 51.4707 6.93946 51.4336C6.97657 51.415 7.53321 51.6377 8.18262 51.9346C9.70411 52.6582 11.2441 53.0479 12.9883 53.1963C14.1943 53.2891 14.5098 53.252 15.1777 52.8994C17.1631 51.8789 17.1631 49.0771 15.1777 48.1123C14.7324 47.8896 13.7305 47.6299 12.9512 47.5371C9.18458 47.0732 6.34571 44.3271 5.71485 40.5605C5.13966 37.1094 7.10645 33.3799 10.2793 31.8955C13.3965 30.4482 16.6065 30.8564 19.3525 33.0645C20.5957 34.0664 21.3936 34.3633 22.3027 34.1592C23.8428 33.8066 24.585 32.7861 24.4551 31.2275C24.3623 30.207 24.3252 30.1328 23.1748 29.0381C22.0059 27.9434 19.8164 26.6445 18.3135 26.1621C17.4414 25.8838 17.126 25.2529 16.959 23.4346C16.6436 19.9834 18.5361 16.6436 21.6533 15.1777C24.6963 13.749 27.9434 14.1758 30.6895 16.3652C32.4707 17.8125 33.8438 17.9053 35.0684 16.6807C35.7363 16.0127 35.8848 15.4932 35.7549 14.3242C35.6621 13.5449 35.5322 13.3408 34.4375 12.3018C33.5469 11.4482 32.7305 10.9102 31.376 10.2607C30.3555 9.75977 29.5205 9.2959 29.502 9.22168C29.502 9.12891 29.9473 8.62793 30.4854 8.07129C32.582 5.97461 35.5508 5.13965 38.3154 5.84473ZM60.544 5.84473C62.1397 6.25293 63.4014 6.97656 64.5147 8.07129C65.0527 8.62793 65.4981 9.12891 65.4981 9.22168C65.4795 9.2959 64.6445 9.75977 63.624 10.2607C62.2695 10.9102 61.4531 11.4482 60.5625 12.3018C59.4678 13.3408 59.3379 13.5449 59.2451 14.3242C59.1152 15.4932 59.2637 16.0127 59.9502 16.6807C61.1563 17.8867 62.5664 17.7939 64.2734 16.4023C67.0195 14.1758 70.2852 13.7305 73.3467 15.1777C76.4639 16.6436 78.3564 19.9834 78.041 23.4346C77.874 25.2529 77.5586 25.8838 76.6865 26.1621C75.1836 26.6445 72.9941 27.9434 71.8252 29.0381C70.6748 30.1328 70.6377 30.207 70.5449 31.2275C70.415 32.7861 71.1572 33.8066 72.6973 34.1592C73.6065 34.3633 74.4043 34.0664 75.6475 33.0645C79.1729 30.2256 83.8672 30.3926 86.9473 33.4727C91.8271 38.3711 88.9326 46.6836 82.0488 47.5371C81.2695 47.6299 80.2676 47.8896 79.8223 48.1123C77.8369 49.0771 77.8369 51.8789 79.8223 52.8994C80.4902 53.252 80.8057 53.2891 82.0117 53.1963C83.7559 53.0479 85.2959 52.6582 86.8174 51.9346C87.4668 51.6377 88.0234 51.415 88.0605 51.4336C88.0791 51.4707 88.3203 51.8975 88.5615 52.417C90.1016 55.4785 89.4336 59.4121 86.9473 61.8984C83.7188 65.127 78.4492 65.127 75.2207 61.8984C72.1406 58.8184 71.9736 54.124 74.8125 50.5986C75.8145 49.3555 76.1113 48.5576 75.9072 47.6484C75.5547 46.127 74.5342 45.3662 72.9941 45.4961C72.085 45.5703 71.8809 45.6816 71.1201 46.4053C69.543 47.9268 68.1328 50.4688 67.5205 52.8994C67.2607 53.9756 67.168 57.4082 67.3906 58.3916C67.5205 58.9482 67.4834 59.0039 67.0195 59.1152C65.8506 59.3564 63.7539 60.1729 62.6592 60.8037C61.1563 61.6758 58.6885 64.1621 57.8164 65.6836C56.8145 67.3721 56.0723 69.7656 55.9238 71.6582C55.8125 73.1055 55.8311 73.3096 56.2393 74.0332C57.0186 75.4248 58.5215 75.8701 59.9502 75.1465C60.8594 74.6641 61.3047 73.7363 61.5645 71.7695C62.0283 68.0029 64.7744 65.1641 68.541 64.5332L69.7656 64.3291L71.3984 65.9062C72.9756 67.4277 74.5156 68.374 77.0205 69.3574C77.5586 69.5615 77.874 70.3965 78.041 72.1035C78.3564 75.1094 76.5566 78.5234 73.8848 79.9336C72.6973 80.5645 72.3633 80.6572 72.3633 80.3047C72.3633 79.8223 71.4912 78.8389 70.8232 78.5791C69.8955 78.208 69.3389 78.2266 68.4482 78.6719C67.5391 79.1543 67.0938 80.082 66.834 82.0488C66.3701 85.8154 63.624 88.6543 59.8574 89.2852C55.5899 89.9902 51.3037 86.9287 50.4688 82.5869C50.3574 81.9561 50.2832 76.2783 50.2832 67.4092V53.2334L51.2666 53.8643C53.1221 55.0703 56.3135 56.0352 58.3545 56.0352C59.542 56.0352 60.5811 55.46 61.0449 54.5508C61.5088 53.623 61.5088 52.8809 61.0449 51.9346C60.5625 51.0254 59.6348 50.5801 57.668 50.3203C54.0127 49.8564 51.1553 47.2031 50.4688 43.6221C50.209 42.2676 50.209 13.7676 50.4688 12.4131C51.3594 7.75586 56.0723 4.67578 60.544 5.84473Z" fill="#FFE600"/>
<path d="M31.6729 23.5273C30.6338 24.2324 30.1328 25.4756 30.4483 26.6074C30.541 26.9414 31.0234 27.7207 31.5059 28.333C31.9883 28.9268 32.582 29.873 32.8233 30.4297C34.1035 33.417 33.6397 36.5713 31.5059 39.2061C30.5039 40.4678 30.207 41.2471 30.4297 42.1748C30.7451 43.5664 31.71 44.3457 33.1387 44.3457C33.8438 44.3457 34.2334 44.2344 34.6231 43.9189C36.3672 42.5645 38.0928 39.6699 38.7979 36.9053C39.1318 35.6064 39.1318 31.9326 38.7979 30.6338C38.167 28.1846 36.794 25.7168 35.1797 24.1396C34.4004 23.3789 34.2334 23.3047 33.2686 23.249C32.4336 23.1934 32.0811 23.249 31.6729 23.5273Z" fill="#FFE600"/>
<path d="M60.7666 23.3604C60.2471 23.583 58.7813 25.1973 58.002 26.3848C56.5547 28.667 55.9424 30.8379 55.9424 33.7695C55.9424 36.8125 56.5733 38.9648 58.169 41.377C59.709 43.6777 60.5254 44.3457 61.8613 44.3457C63.2901 44.3457 64.2549 43.5664 64.5703 42.1748C64.793 41.2471 64.4961 40.4678 63.4942 39.2061C60.7852 35.8477 60.7852 31.6914 63.4942 28.333C64.4961 27.0713 64.793 26.292 64.5703 25.3643C64.2734 24.0098 63.2901 23.1934 61.9727 23.2119C61.5088 23.2119 60.9707 23.2861 60.7666 23.3604Z" fill="#FFE600"/>
</svg>
