<svg width="705" height="213" viewBox="0 0 705 213" fill="none" xmlns="http://www.w3.org/2000/svg">
<g opacity="0.03">
<path d="M0 212.4V0H72V212.4H0Z" fill="white"/>
<path d="M196.821 212.4H111.621V0H190.821C204.821 0 217.821 0.999999 229.821 3C241.821 5 253.321 8.59999 264.321 13.8C275.521 18.8 284.921 25.2 292.521 33C300.321 40.6 306.521 50.6 311.121 63C315.721 75.2 318.021 89.2 318.021 105C318.021 123 314.721 139.1 308.121 153.3C301.521 167.3 292.421 178.5 280.821 186.9C269.421 195.3 256.621 201.7 242.421 206.1C228.221 210.3 213.021 212.4 196.821 212.4ZM196.221 60.6H180.321V151.2H193.521C228.321 151.2 245.721 135.6 245.721 104.4C245.721 90.8 241.221 80.1 232.221 72.3C223.421 64.5 211.421 60.6 196.221 60.6Z" fill="white"/>
<path d="M348.047 212.4V0H494.147V59.4H415.247V77.7H489.347V133.2H415.247V153H499.247V212.4H348.047Z" fill="white"/>
<path d="M504.209 212.4L587.909 0H663.809L746.609 212.4H668.909L657.809 181.2H590.309L579.809 212.4H504.209ZM641.909 126.6L624.809 74.1L607.409 126.6H641.909Z" fill="white"/>
</g>
</svg>
