<svg width="98" height="343" viewBox="0 0 98 343" fill="none" xmlns="http://www.w3.org/2000/svg">
<g opacity="0.03">
<path d="M98 343L0 343L-1.44587e-06 309.922L98 309.922L98 343Z" fill="white"/>
<path d="M98 252.578L98 291.72L-2.24152e-06 291.72L-3.83197e-06 255.335C-4.11311e-06 248.903 0.461389 242.931 1.38417 237.418C2.30696 231.905 3.96798 226.622 6.36722 221.568C8.67419 216.423 11.6271 212.104 15.226 208.613C18.7326 205.029 23.3465 202.181 29.0678 200.068C34.6968 197.954 41.1563 196.898 48.4463 196.898C56.7514 196.898 64.1798 198.414 70.7316 201.446C77.1911 204.478 82.3588 208.659 86.2345 213.988C90.1102 219.225 93.0631 225.106 95.0932 231.629C97.0311 238.153 98 245.136 98 252.578ZM27.9604 252.854L27.9604 260.159L69.7627 260.159L69.7627 254.094C69.7627 238.107 62.565 230.113 48.1695 230.113C41.8945 230.113 36.9576 232.18 33.3588 236.315C29.7599 240.358 27.9604 245.871 27.9604 252.854Z" fill="white"/>
<path d="M98 183.104L-6.9893e-06 183.104L-9.9232e-06 115.984L27.4068 115.984L27.4068 152.231L35.8503 152.231L35.8503 118.189L61.4576 118.189L61.4576 152.231L70.5932 152.231L70.5932 113.641L98 113.641L98 183.104Z" fill="white"/>
<path d="M98 111.361L-1.18061e-05 72.9085L-1.33303e-05 38.0392L98 4.46721e-06L98 35.6962L83.6045 40.7957L83.6045 71.8059L98 76.6297L98 111.361ZM58.4124 48.1003L34.1893 55.9562L58.4124 63.95L58.4124 48.1003Z" fill="white"/>
</g>
</svg>
