<svg width="730" height="115" viewBox="0 0 730 115" fill="none" xmlns="http://www.w3.org/2000/svg">
<path d="M0 115V0.479167H84.0266V14.7743H14.2538V49.434H69.3791V63.6493H14.2538V115H0Z" fill="white"/>
<path d="M157.438 115V0.479167H171.613V102.542H236.661V115H157.438Z" fill="white"/>
<path d="M470.344 115L505.625 56.1424L471.919 0.479167H487.748L512.082 41.9271L536.573 0H552.402L518.697 55.6632L553.977 114.521H538.857L512.24 69.7188L485.464 115H470.344Z" fill="white"/>
<path d="M671.489 115V57.2604L626.916 0.479167H645.343L678.419 44.9618L711.572 0H730L685.506 57.1007L685.349 115H671.489Z" fill="white"/>
<rect x="312.569" width="82.6796" height="14.375" fill="#FFE600"/>
<rect x="312.569" y="100.625" width="82.6796" height="14.375" fill="#FFE600"/>
<rect x="312.569" y="49.2854" width="82.6796" height="14.375" fill="#FFE600"/>
</svg>
