<svg width="1440" height="287" viewBox="0 0 1440 287" fill="none" xmlns="http://www.w3.org/2000/svg">
<g opacity="0.03">
<path d="M56.5691 125.85L54.6578 125.85L58.8628 279.326L-26 279.326L-26 7.67377L92.8843 7.67377L141.814 153.86L143.725 153.86L186.157 7.67377L308.864 7.67377L308.864 279.326L220.56 279.326L223.236 126.618L220.943 126.234L170.484 279.326L106.264 279.326L56.5691 125.85Z" fill="white"/>
<path d="M347.018 141.965C347.018 99.2477 361.162 64.9714 389.45 39.1363C417.737 13.0454 453.67 -4.36497e-05 497.248 -4.36568e-05C540.826 -4.36639e-05 576.759 13.0454 605.047 39.1363C633.589 64.9715 647.86 99.2478 647.86 141.965C647.86 184.939 633.589 219.854 605.047 246.713C576.504 273.571 540.571 287 497.248 287C453.925 287 417.992 273.571 389.45 246.713C361.162 219.854 347.018 184.939 347.018 141.965ZM443.731 141.965C443.731 159.615 448.701 174.195 458.639 185.706C468.833 196.961 481.703 202.588 497.248 202.588C512.539 202.588 525.281 196.961 535.475 185.706C545.668 174.195 550.765 159.615 550.765 141.965C550.765 124.571 545.668 110.503 535.475 99.7593C525.536 89.016 512.794 83.6444 497.248 83.6444C481.703 83.6444 468.833 89.016 458.639 99.7593C448.701 110.503 443.731 124.571 443.731 141.965Z" fill="white"/>
<path d="M793.682 78.6564L771.128 78.6564L771.128 112.037L795.593 112.037C810.119 112.037 817.382 106.026 817.382 94.004C817.382 83.7723 809.482 78.6564 793.682 78.6564ZM794.447 170.742L771.128 170.742L771.128 207.576L798.269 207.576C805.66 207.576 811.521 205.914 815.853 202.588C820.186 199.263 822.352 194.659 822.352 188.775C822.352 182.381 819.421 177.776 813.56 174.963C807.953 172.149 801.582 170.742 794.447 170.742ZM863.254 136.977L863.254 138.128C877.271 141.454 889.248 148.616 899.187 159.615C909.126 170.614 914.095 184.043 914.095 199.902C914.095 214.227 911.165 226.761 905.303 237.504C899.442 247.992 891.414 256.177 881.221 262.06C871.027 267.943 859.941 272.292 847.964 275.106C835.986 277.919 822.989 279.326 808.973 279.326L686.266 279.326L686.266 7.67377L797.505 7.67377C867.841 7.67377 903.01 31.7183 903.01 79.8075C903.01 107.689 889.758 126.746 863.254 136.977Z" fill="white"/>
<path d="M951.312 279.326L951.312 7.67377L1043.06 7.67377L1043.06 279.326L951.312 279.326Z" fill="white"/>
<path d="M1093.54 279.326L1093.54 7.67377L1185.28 7.67377L1185.28 201.053L1275.12 201.053L1275.12 279.326L1093.54 279.326Z" fill="white"/>
<path d="M1303.34 279.326L1303.34 7.67377L1489.5 7.67377L1489.5 83.6444L1388.97 83.6444L1388.97 107.049L1483.39 107.049L1483.39 178.032L1388.97 178.032L1388.97 203.356L1496 203.356L1496 279.326L1303.34 279.326Z" fill="white"/>
</g>
</svg>
