<svg width="1227" height="297" viewBox="0 0 1227 297" fill="none" xmlns="http://www.w3.org/2000/svg">
<g opacity="0.03">
<path d="M173.51 84.3178L173.51 297H73.2785L73.2785 84.3178L0 84.3178L0 0L246.788 0V84.3178L173.51 84.3178Z" fill="white"/>
<path d="M277.367 297L277.367 0L482.463 0V83.0593L371.703 83.0593V108.648L475.724 108.648L475.724 186.254L371.703 186.254V213.941L489.622 213.941V297H277.367Z" fill="white"/>
<path d="M496.587 297L614.086 0L720.634 0L836.869 297H727.794L712.211 253.373L617.455 253.373L602.715 297L496.587 297ZM689.891 177.025L665.886 103.614L641.46 177.025H689.891Z" fill="white"/>
<path d="M949.047 129.203H946.941L951.574 297L858.081 297V0L989.055 0L1042.96 159.826H1045.07L1091.81 0L1227 0V297H1129.72L1132.66 130.042L1130.14 129.623L1074.55 297H1003.8L949.047 129.203Z" fill="white"/>
</g>
</svg>
