<svg width="256" height="62" viewBox="0 0 256 62" fill="none" xmlns="http://www.w3.org/2000/svg">
<g opacity="0.03">
<path d="M36.2009 17.6017L36.2009 62L15.2887 62L15.2887 17.6017L0 17.6017L0 0L51.4897 0V17.6017H36.2009Z" fill="white"/>
<path d="M57.8696 62L57.8696 0L100.661 0V17.339L77.5517 17.339V22.6808H99.2547V38.8814H77.5517L77.5517 44.661H102.154V62L57.8696 62Z" fill="white"/>
<path d="M103.607 62L128.122 0L150.352 0L174.603 62L151.846 62L148.595 52.8927H128.825L125.75 62L103.607 62ZM143.938 36.9548L138.93 21.6299L133.834 36.9548H143.938Z" fill="white"/>
<path d="M198.008 26.9718H197.569L198.535 62H179.029V0L206.356 0L217.602 33.3644H218.042L227.795 0L256 0V62L235.703 62L236.318 27.1469L235.791 27.0593L224.192 62H209.431L198.008 26.9718Z" fill="white"/>
</g>
</svg>
